# WaveFront *.obj file (generated by Autodesk ATF)

mtllib пол.mtl

g Твердое тело1

v -50.000000 0.000000 -50.000000
v -50.000000 0.000000 50.000000
v -50.000000 3.000000 -50.000000
v -50.000000 3.000000 50.000000
v -10.000000 0.000000 -53.000002
v -10.000000 0.000000 -50.000000
v -10.000000 0.000000 50.000000
v -10.000000 0.000000 53.000002
v -10.000000 3.000000 -53.000002
v -10.000000 3.000000 -50.000000
v -10.000000 3.000000 50.000000
v -10.000000 3.000000 53.000002
v 10.000000 0.000000 -53.000002
v 10.000000 0.000000 -50.000000
v 10.000000 0.000000 50.000000
v 10.000000 0.000000 53.000002
v 10.000000 3.000000 -53.000002
v 10.000000 3.000000 -50.000000
v 10.000000 3.000000 50.000000
v 10.000000 3.000000 53.000002
v 50.000000 0.000000 -50.000000
v 50.000000 0.000000 50.000000
v 50.000000 3.000000 -50.000000
v 50.000000 3.000000 50.000000
vt 0.000000 0.000000 0.000000
vt 0.300000 0.000000 0.000000
vt 0.300000 0.300000 0.000000
vt 0.000000 0.300000 0.000000
vt 0.000000 0.000000 0.000000
vt 4.000000 0.000000 0.000000
vt 4.000000 0.300000 0.000000
vt 0.000000 0.300000 0.000000
vt 0.000000 0.000000 0.000000
vt 10.000000 0.000000 0.000000
vt 10.000000 0.300000 0.000000
vt 0.000000 0.300000 0.000000
vt 0.000000 0.000000 0.000000
vt 4.000000 0.000000 0.000000
vt 4.000000 0.300000 0.000000
vt 0.000000 0.300000 0.000000
vt 0.000000 0.000000 0.000000
vt 0.300000 0.000000 0.000000
vt 0.300000 0.300000 0.000000
vt 0.000000 0.300000 0.000000
vt 0.000000 0.000000 0.000000
vt 2.000000 0.000000 0.000000
vt 2.000000 0.300000 0.000000
vt 0.000000 0.300000 0.000000
vt 0.000000 0.000000 0.000000
vt 0.300000 0.000000 0.000000
vt 0.300000 0.300000 0.000000
vt 0.000000 0.300000 0.000000
vt 0.000000 0.000000 0.000000
vt 4.000000 0.000000 0.000000
vt 4.000000 0.300000 0.000000
vt 0.000000 0.300000 0.000000
vt 0.000000 0.000000 0.000000
vt 10.000000 0.000000 0.000000
vt 10.000000 0.300000 0.000000
vt 0.000000 0.300000 0.000000
vt 0.000000 0.000000 0.000000
vt 4.000000 0.000000 0.000000
vt 4.000000 0.300000 0.000000
vt 0.000000 0.300000 0.000000
vt 0.000000 0.000000 0.000000
vt 0.300000 0.000000 0.000000
vt 0.300000 0.300000 0.000000
vt 0.000000 0.300000 0.000000
vt 0.000000 0.000000 0.000000
vt 2.000000 0.000000 0.000000
vt 2.000000 0.300000 0.000000
vt 0.000000 0.300000 0.000000
vt -5.300000 1.000000 0.000000
vt -5.300000 -1.000000 0.000000
vt -5.000000 -1.000000 0.000000
vt -5.000000 -5.000000 0.000000
vt 5.000000 -5.000000 0.000000
vt 5.000000 -1.000000 0.000000
vt 5.300000 -1.000000 0.000000
vt 5.300000 1.000000 0.000000
vt 5.000000 1.000000 0.000000
vt 5.000000 5.000000 0.000000
vt -5.000000 5.000000 0.000000
vt -5.000000 1.000000 0.000000
vt 5.300000 -1.000000 0.000000
vt 5.300000 1.000000 0.000000
vt 5.000000 1.000000 0.000000
vt 5.000000 5.000000 0.000000
vt -5.000000 5.000000 0.000000
vt -5.000000 1.000000 0.000000
vt -5.300000 1.000000 0.000000
vt -5.300000 -1.000000 0.000000
vt -5.000000 -1.000000 0.000000
vt -5.000000 -5.000000 0.000000
vt 5.000000 -5.000000 0.000000
vt 5.000000 -1.000000 0.000000
vn 0.100000 0.000000 0.000000
vn 0.100000 0.000000 0.000000
vn 0.100000 0.000000 0.000000
vn 0.100000 0.000000 0.000000
vn 0.000000 0.000000 -0.100000
vn 0.000000 0.000000 -0.100000
vn 0.000000 0.000000 -0.100000
vn 0.000000 0.000000 -0.100000
vn 0.100000 0.000000 0.000000
vn 0.100000 0.000000 0.000000
vn 0.100000 0.000000 0.000000
vn 0.100000 0.000000 0.000000
vn 0.000000 0.000000 0.100000
vn 0.000000 0.000000 0.100000
vn 0.000000 0.000000 0.100000
vn 0.000000 0.000000 0.100000
vn 0.100000 0.000000 0.000000
vn 0.100000 0.000000 0.000000
vn 0.100000 0.000000 0.000000
vn 0.100000 0.000000 0.000000
vn 0.000000 0.000000 0.100000
vn 0.000000 0.000000 0.100000
vn 0.000000 0.000000 0.100000
vn 0.000000 0.000000 0.100000
vn -0.100000 0.000000 0.000000
vn -0.100000 0.000000 0.000000
vn -0.100000 0.000000 0.000000
vn -0.100000 0.000000 0.000000
vn 0.000000 0.000000 0.100000
vn 0.000000 0.000000 0.100000
vn 0.000000 0.000000 0.100000
vn 0.000000 0.000000 0.100000
vn -0.100000 0.000000 0.000000
vn -0.100000 0.000000 0.000000
vn -0.100000 0.000000 0.000000
vn -0.100000 0.000000 0.000000
vn 0.000000 0.000000 -0.100000
vn 0.000000 0.000000 -0.100000
vn 0.000000 0.000000 -0.100000
vn 0.000000 0.000000 -0.100000
vn -0.100000 0.000000 0.000000
vn -0.100000 0.000000 0.000000
vn -0.100000 0.000000 0.000000
vn -0.100000 0.000000 0.000000
vn 0.000000 0.000000 -0.100000
vn 0.000000 0.000000 -0.100000
vn 0.000000 0.000000 -0.100000
vn 0.000000 0.000000 -0.100000
vn 0.000000 0.100000 0.000000
vn 0.000000 0.100000 0.000000
vn 0.000000 0.100000 0.000000
vn 0.000000 0.100000 0.000000
vn 0.000000 0.100000 0.000000
vn 0.000000 0.100000 0.000000
vn 0.000000 0.100000 0.000000
vn 0.000000 0.100000 0.000000
vn 0.000000 0.100000 0.000000
vn 0.000000 0.100000 0.000000
vn 0.000000 0.100000 0.000000
vn 0.000000 0.100000 0.000000
vn 0.000000 -0.100000 0.000000
vn 0.000000 -0.100000 0.000000
vn 0.000000 -0.100000 0.000000
vn 0.000000 -0.100000 0.000000
vn 0.000000 -0.100000 0.000000
vn 0.000000 -0.100000 0.000000
vn 0.000000 -0.100000 0.000000
vn 0.000000 -0.100000 0.000000
vn 0.000000 -0.100000 0.000000
vn 0.000000 -0.100000 0.000000
vn 0.000000 -0.100000 0.000000
vn 0.000000 -0.100000 0.000000
usemtl 235,235,235
f 14/1/1 13/2/2 18/4/4
f 18/4/4 13/2/2 17/3/3
f 21/5/5 14/6/6 23/8/8
f 23/8/8 14/6/6 18/7/7
f 22/9/9 21/10/10 24/12/12
f 24/12/12 21/10/10 23/11/11
f 15/13/13 22/14/14 19/16/16
f 19/16/16 22/14/14 24/15/15
f 16/17/17 15/18/18 20/20/20
f 20/20/20 15/18/18 19/19/19
f 8/21/21 16/22/22 12/24/24
f 12/24/24 16/22/22 20/23/23
f 7/25/25 8/26/26 11/28/28
f 11/28/28 8/26/26 12/27/27
f 2/29/29 7/30/30 4/32/32
f 4/32/32 7/30/30 11/31/31
f 1/33/33 2/34/34 3/36/36
f 3/36/36 2/34/34 4/35/35
f 6/37/37 1/38/38 10/40/40
f 10/40/40 1/38/38 3/39/39
f 5/41/41 6/42/42 9/44/44
f 9/44/44 6/42/42 10/43/43
f 13/45/45 5/46/46 17/48/48
f 17/48/48 5/46/46 9/47/47
f 9/50/50 10/51/51 17/49/49
f 17/49/49 10/51/51 18/60/60
f 18/60/60 10/51/51 11/54/54
f 18/60/60 11/54/54 19/57/57
f 19/57/57 11/54/54 12/55/55
f 19/57/57 12/55/55 20/56/56
f 3/52/52 4/53/53 10/51/51
f 10/51/51 4/53/53 11/54/54
f 24/58/58 23/59/59 19/57/57
f 19/57/57 23/59/59 18/60/60
f 13/62/62 14/63/63 5/61/61
f 5/61/61 14/63/63 6/72/72
f 6/72/72 14/63/63 15/66/66
f 6/72/72 15/66/66 7/69/69
f 7/69/69 15/66/66 16/67/67
f 7/69/69 16/67/67 8/68/68
f 21/64/64 22/65/65 14/63/63
f 14/63/63 22/65/65 15/66/66
f 2/70/70 1/71/71 7/69/69
f 7/69/69 1/71/71 6/72/72

# 24 vertices
# 72 texture params
# 72 normals
# 44 facets

# 1 groups
