# WaveFront *.obj file (generated by Autodesk ATF)

mtllib спинка.mtl

g Твердое тело1

v -106.999998 0.000000 -276.000004
v -106.999998 0.000000 -256.000004
v -106.999998 0.000000 -172.000008
v -106.999998 0.000000 -151.999998
v -106.999998 0.000000 -68.000002
v -106.999998 0.000000 -48.000002
v -106.999998 3.000000 -276.000004
v -106.999998 3.000000 -256.000004
v -106.999998 3.000000 -172.000008
v -106.999998 3.000000 -151.999998
v -106.999998 3.000000 -68.000002
v -106.999998 3.000000 -48.000002
v -103.999996 0.000000 -320.000000
v -103.999996 0.000000 -276.000004
v -103.999996 0.000000 -256.000004
v -103.999996 0.000000 -172.000008
v -103.999996 0.000000 -151.999998
v -103.999996 0.000000 -68.000002
v -103.999996 0.000000 -48.000002
v -103.999996 0.000000 -4.000000
v -103.999996 3.000000 -320.000000
v -103.999996 3.000000 -276.000004
v -103.999996 3.000000 -256.000004
v -103.999996 3.000000 -172.000008
v -103.999996 3.000000 -151.999998
v -103.999996 3.000000 -68.000002
v -103.999996 3.000000 -48.000002
v -103.999996 3.000000 -4.000000
v -4.000000 0.000000 -320.000000
v -4.000000 0.000000 -276.000004
v -4.000000 0.000000 -256.000004
v -4.000000 0.000000 -172.000008
v -4.000000 0.000000 -151.999998
v -4.000000 0.000000 -68.000002
v -4.000000 0.000000 -48.000002
v -4.000000 0.000000 -4.000000
v -4.000000 3.000000 -320.000000
v -4.000000 3.000000 -276.000004
v -4.000000 3.000000 -256.000004
v -4.000000 3.000000 -172.000008
v -4.000000 3.000000 -151.999998
v -4.000000 3.000000 -68.000002
v -4.000000 3.000000 -48.000002
v -4.000000 3.000000 -4.000000
v -1.000000 0.000000 -276.000004
v -1.000000 0.000000 -256.000004
v -1.000000 0.000000 -172.000008
v -1.000000 0.000000 -151.999998
v -1.000000 0.000000 -68.000002
v -1.000000 0.000000 -48.000002
v -1.000000 3.000000 -276.000004
v -1.000000 3.000000 -256.000004
v -1.000000 3.000000 -172.000008
v -1.000000 3.000000 -151.999998
v -1.000000 3.000000 -68.000002
v -1.000000 3.000000 -48.000002
vt 0.000000 0.000000 0.000000
vt 2.000000 0.000000 0.000000
vt 2.000000 0.300000 0.000000
vt 0.000000 0.300000 0.000000
vt 0.000000 0.000000 0.000000
vt 0.300000 0.000000 0.000000
vt 0.300000 0.300000 0.000000
vt 0.000000 0.300000 0.000000
vt 0.000000 0.000000 0.000000
vt 4.400000 0.000000 0.000000
vt 4.400000 0.300000 0.000000
vt 0.000000 0.300000 0.000000
vt 0.000000 0.000000 0.000000
vt 10.000000 0.000000 0.000000
vt 10.000000 0.300000 0.000000
vt 0.000000 0.300000 0.000000
vt 0.000000 0.000000 0.000000
vt 4.400000 0.000000 0.000000
vt 4.400000 0.300000 0.000000
vt 0.000000 0.300000 0.000000
vt 0.000000 0.000000 0.000000
vt 0.300000 0.000000 0.000000
vt 0.300000 0.300000 0.000000
vt 0.000000 0.300000 0.000000
vt 0.000000 0.000000 0.000000
vt 2.000000 0.000000 0.000000
vt 2.000000 0.300000 0.000000
vt 0.000000 0.300000 0.000000
vt 0.000000 0.000000 0.000000
vt 0.300000 0.000000 0.000000
vt 0.300000 0.300000 0.000000
vt 0.000000 0.300000 0.000000
vt 0.000000 0.000000 0.000000
vt 8.400000 0.000000 0.000000
vt 8.400000 0.300000 0.000000
vt 0.000000 0.300000 0.000000
vt 0.000000 0.000000 0.000000
vt 0.300000 0.000000 0.000000
vt 0.300000 0.300000 0.000000
vt 0.000000 0.300000 0.000000
vt 0.000000 0.000000 0.000000
vt 2.000000 0.000000 0.000000
vt 2.000000 0.300000 0.000000
vt 0.000000 0.300000 0.000000
vt 0.000000 0.000000 0.000000
vt 0.300000 0.000000 0.000000
vt 0.300000 0.300000 0.000000
vt 0.000000 0.300000 0.000000
vt 0.000000 0.000000 0.000000
vt 8.400000 0.000000 0.000000
vt 8.400000 0.300000 0.000000
vt 0.000000 0.300000 0.000000
vt 0.000000 0.000000 0.000000
vt 0.300000 0.000000 0.000000
vt 0.300000 0.300000 0.000000
vt 0.000000 0.300000 0.000000
vt 0.000000 0.000000 0.000000
vt 2.000000 0.000000 0.000000
vt 2.000000 0.300000 0.000000
vt 0.000000 0.300000 0.000000
vt 0.000000 0.000000 0.000000
vt 0.300000 0.000000 0.000000
vt 0.300000 0.300000 0.000000
vt 0.000000 0.300000 0.000000
vt 0.000000 0.000000 0.000000
vt 4.400000 0.000000 0.000000
vt 4.400000 0.300000 0.000000
vt 0.000000 0.300000 0.000000
vt 0.000000 0.000000 0.000000
vt 10.000000 0.000000 0.000000
vt 10.000000 0.300000 0.000000
vt 0.000000 0.300000 0.000000
vt 0.000000 0.000000 0.000000
vt 4.400000 0.000000 0.000000
vt 4.400000 0.300000 0.000000
vt 0.000000 0.300000 0.000000
vt 0.000000 0.000000 0.000000
vt 0.300000 0.000000 0.000000
vt 0.300000 0.300000 0.000000
vt 0.000000 0.300000 0.000000
vt 0.000000 0.000000 0.000000
vt 2.000000 0.000000 0.000000
vt 2.000000 0.300000 0.000000
vt 0.000000 0.300000 0.000000
vt 0.000000 0.000000 0.000000
vt 0.300000 0.000000 0.000000
vt 0.300000 0.300000 0.000000
vt 0.000000 0.300000 0.000000
vt 0.000000 0.000000 0.000000
vt 8.400000 0.000000 0.000000
vt 8.400000 0.300000 0.000000
vt 0.000000 0.300000 0.000000
vt 0.000000 0.000000 0.000000
vt 0.300000 0.000000 0.000000
vt 0.300000 0.300000 0.000000
vt 0.000000 0.300000 0.000000
vt 0.000000 0.000000 0.000000
vt 2.000000 0.000000 0.000000
vt 2.000000 0.300000 0.000000
vt 0.000000 0.300000 0.000000
vt 0.000000 0.000000 0.000000
vt 0.300000 0.000000 0.000000
vt 0.300000 0.300000 0.000000
vt 0.000000 0.300000 0.000000
vt 0.000000 0.000000 0.000000
vt 8.400000 0.000000 0.000000
vt 8.400000 0.300000 0.000000
vt 0.000000 0.300000 0.000000
vt 0.000000 0.000000 0.000000
vt 0.300000 0.000000 0.000000
vt 0.300000 0.300000 0.000000
vt 0.000000 0.300000 0.000000
vt -9.400000 -5.150000 0.000000
vt -9.400000 -4.850000 0.000000
vt -1.000000 -4.850000 0.000000
vt -1.000000 -5.150000 0.000000
vt 1.000000 -5.150000 0.000000
vt 1.000000 -4.850000 0.000000
vt 9.400000 -4.850000 0.000000
vt 9.400000 -5.150000 0.000000
vt 11.400000 -5.150000 0.000000
vt 11.400000 -4.850000 0.000000
vt 15.800000 -4.850000 0.000000
vt 15.800000 5.150000 0.000000
vt 11.400000 5.150000 0.000000
vt 11.400000 5.450000 0.000000
vt 9.400000 5.450000 0.000000
vt 9.400000 5.150000 0.000000
vt 1.000000 5.150000 0.000000
vt 1.000000 5.450000 0.000000
vt -1.000000 5.450000 0.000000
vt -1.000000 5.150000 0.000000
vt -9.400000 5.150000 0.000000
vt -9.400000 5.450000 0.000000
vt -11.400000 5.450000 0.000000
vt -11.400000 5.150000 0.000000
vt -15.800000 5.150000 0.000000
vt -15.800000 -4.850000 0.000000
vt -11.400000 -4.850000 0.000000
vt -11.400000 -5.150000 0.000000
vt 9.400000 -4.850000 0.000000
vt 9.400000 -5.150000 0.000000
vt 11.400000 -5.150000 0.000000
vt 11.400000 -4.850000 0.000000
vt 15.800000 -4.850000 0.000000
vt 15.800000 5.150000 0.000000
vt 11.400000 5.150000 0.000000
vt 11.400000 5.450000 0.000000
vt 9.400000 5.450000 0.000000
vt 9.400000 5.150000 0.000000
vt 1.000000 5.150000 0.000000
vt 1.000000 5.450000 0.000000
vt -1.000000 5.450000 0.000000
vt -1.000000 5.150000 0.000000
vt -9.400000 5.150000 0.000000
vt -9.400000 5.450000 0.000000
vt -11.400000 5.450000 0.000000
vt -11.400000 5.150000 0.000000
vt -15.800000 5.150000 0.000000
vt -15.800000 -4.850000 0.000000
vt -11.400000 -4.850000 0.000000
vt -11.400000 -5.150000 0.000000
vt -9.400000 -5.150000 0.000000
vt -9.400000 -4.850000 0.000000
vt -1.000000 -4.850000 0.000000
vt -1.000000 -5.150000 0.000000
vt 1.000000 -5.150000 0.000000
vt 1.000000 -4.850000 0.000000
vn -0.100000 0.000000 0.000000
vn -0.100000 0.000000 0.000000
vn -0.100000 0.000000 0.000000
vn -0.100000 0.000000 0.000000
vn 0.000000 0.000000 -0.100000
vn 0.000000 0.000000 -0.100000
vn 0.000000 0.000000 -0.100000
vn 0.000000 0.000000 -0.100000
vn -0.100000 0.000000 0.000000
vn -0.100000 0.000000 0.000000
vn -0.100000 0.000000 0.000000
vn -0.100000 0.000000 0.000000
vn 0.000000 0.000000 -0.100000
vn 0.000000 0.000000 -0.100000
vn 0.000000 0.000000 -0.100000
vn 0.000000 0.000000 -0.100000
vn 0.100000 0.000000 0.000000
vn 0.100000 0.000000 0.000000
vn 0.100000 0.000000 0.000000
vn 0.100000 0.000000 0.000000
vn 0.000000 0.000000 -0.100000
vn 0.000000 0.000000 -0.100000
vn 0.000000 0.000000 -0.100000
vn 0.000000 0.000000 -0.100000
vn 0.100000 0.000000 0.000000
vn 0.100000 0.000000 0.000000
vn 0.100000 0.000000 0.000000
vn 0.100000 0.000000 0.000000
vn 0.000000 0.000000 0.100000
vn 0.000000 0.000000 0.100000
vn 0.000000 0.000000 0.100000
vn 0.000000 0.000000 0.100000
vn 0.100000 0.000000 0.000000
vn 0.100000 0.000000 0.000000
vn 0.100000 0.000000 0.000000
vn 0.100000 0.000000 0.000000
vn 0.000000 0.000000 -0.100000
vn 0.000000 0.000000 -0.100000
vn 0.000000 0.000000 -0.100000
vn 0.000000 0.000000 -0.100000
vn 0.100000 0.000000 0.000000
vn 0.100000 0.000000 0.000000
vn 0.100000 0.000000 0.000000
vn 0.100000 0.000000 0.000000
vn 0.000000 0.000000 0.100000
vn 0.000000 0.000000 0.100000
vn 0.000000 0.000000 0.100000
vn 0.000000 0.000000 0.100000
vn 0.100000 0.000000 0.000000
vn 0.100000 0.000000 0.000000
vn 0.100000 0.000000 0.000000
vn 0.100000 0.000000 0.000000
vn 0.000000 0.000000 -0.100000
vn 0.000000 0.000000 -0.100000
vn 0.000000 0.000000 -0.100000
vn 0.000000 0.000000 -0.100000
vn 0.100000 0.000000 0.000000
vn 0.100000 0.000000 0.000000
vn 0.100000 0.000000 0.000000
vn 0.100000 0.000000 0.000000
vn 0.000000 0.000000 0.100000
vn 0.000000 0.000000 0.100000
vn 0.000000 0.000000 0.100000
vn 0.000000 0.000000 0.100000
vn 0.100000 0.000000 0.000000
vn 0.100000 0.000000 0.000000
vn 0.100000 0.000000 0.000000
vn 0.100000 0.000000 0.000000
vn 0.000000 0.000000 0.100000
vn 0.000000 0.000000 0.100000
vn 0.000000 0.000000 0.100000
vn 0.000000 0.000000 0.100000
vn -0.100000 0.000000 0.000000
vn -0.100000 0.000000 0.000000
vn -0.100000 0.000000 0.000000
vn -0.100000 0.000000 0.000000
vn 0.000000 0.000000 0.100000
vn 0.000000 0.000000 0.100000
vn 0.000000 0.000000 0.100000
vn 0.000000 0.000000 0.100000
vn -0.100000 0.000000 0.000000
vn -0.100000 0.000000 0.000000
vn -0.100000 0.000000 0.000000
vn -0.100000 0.000000 0.000000
vn 0.000000 0.000000 -0.100000
vn 0.000000 0.000000 -0.100000
vn 0.000000 0.000000 -0.100000
vn 0.000000 0.000000 -0.100000
vn -0.100000 0.000000 0.000000
vn -0.100000 0.000000 0.000000
vn -0.100000 0.000000 0.000000
vn -0.100000 0.000000 0.000000
vn 0.000000 0.000000 0.100000
vn 0.000000 0.000000 0.100000
vn 0.000000 0.000000 0.100000
vn 0.000000 0.000000 0.100000
vn -0.100000 0.000000 0.000000
vn -0.100000 0.000000 0.000000
vn -0.100000 0.000000 0.000000
vn -0.100000 0.000000 0.000000
vn 0.000000 0.000000 -0.100000
vn 0.000000 0.000000 -0.100000
vn 0.000000 0.000000 -0.100000
vn 0.000000 0.000000 -0.100000
vn -0.100000 0.000000 0.000000
vn -0.100000 0.000000 0.000000
vn -0.100000 0.000000 0.000000
vn -0.100000 0.000000 0.000000
vn 0.000000 0.000000 0.100000
vn 0.000000 0.000000 0.100000
vn 0.000000 0.000000 0.100000
vn 0.000000 0.000000 0.100000
vn 0.000000 0.100000 0.000000
vn 0.000000 0.100000 0.000000
vn 0.000000 0.100000 0.000000
vn 0.000000 0.100000 0.000000
vn 0.000000 0.100000 0.000000
vn 0.000000 0.100000 0.000000
vn 0.000000 0.100000 0.000000
vn 0.000000 0.100000 0.000000
vn 0.000000 0.100000 0.000000
vn 0.000000 0.100000 0.000000
vn 0.000000 0.100000 0.000000
vn 0.000000 0.100000 0.000000
vn 0.000000 0.100000 0.000000
vn 0.000000 0.100000 0.000000
vn 0.000000 0.100000 0.000000
vn 0.000000 0.100000 0.000000
vn 0.000000 0.100000 0.000000
vn 0.000000 0.100000 0.000000
vn 0.000000 0.100000 0.000000
vn 0.000000 0.100000 0.000000
vn 0.000000 0.100000 0.000000
vn 0.000000 0.100000 0.000000
vn 0.000000 0.100000 0.000000
vn 0.000000 0.100000 0.000000
vn 0.000000 0.100000 0.000000
vn 0.000000 0.100000 0.000000
vn 0.000000 0.100000 0.000000
vn 0.000000 0.100000 0.000000
vn 0.000000 -0.100000 0.000000
vn 0.000000 -0.100000 0.000000
vn 0.000000 -0.100000 0.000000
vn 0.000000 -0.100000 0.000000
vn 0.000000 -0.100000 0.000000
vn 0.000000 -0.100000 0.000000
vn 0.000000 -0.100000 0.000000
vn 0.000000 -0.100000 0.000000
vn 0.000000 -0.100000 0.000000
vn 0.000000 -0.100000 0.000000
vn 0.000000 -0.100000 0.000000
vn 0.000000 -0.100000 0.000000
vn 0.000000 -0.100000 0.000000
vn 0.000000 -0.100000 0.000000
vn 0.000000 -0.100000 0.000000
vn 0.000000 -0.100000 0.000000
vn 0.000000 -0.100000 0.000000
vn 0.000000 -0.100000 0.000000
vn 0.000000 -0.100000 0.000000
vn 0.000000 -0.100000 0.000000
vn 0.000000 -0.100000 0.000000
vn 0.000000 -0.100000 0.000000
vn 0.000000 -0.100000 0.000000
vn 0.000000 -0.100000 0.000000
vn 0.000000 -0.100000 0.000000
vn 0.000000 -0.100000 0.000000
vn 0.000000 -0.100000 0.000000
vn 0.000000 -0.100000 0.000000
usemtl 115,148,64
f 1/1/1 2/2/2 7/4/4
f 7/4/4 2/2/2 8/3/3
f 14/5/5 1/6/6 22/8/8
f 22/8/8 1/6/6 7/7/7
f 13/9/9 14/10/10 21/12/12
f 21/12/12 14/10/10 22/11/11
f 29/13/13 13/14/14 37/16/16
f 37/16/16 13/14/14 21/15/15
f 30/17/17 29/18/18 38/20/20
f 38/20/20 29/18/18 37/19/19
f 45/21/21 30/22/22 51/24/24
f 51/24/24 30/22/22 38/23/23
f 46/25/25 45/26/26 52/28/28
f 52/28/28 45/26/26 51/27/27
f 31/29/29 46/30/30 39/32/32
f 39/32/32 46/30/30 52/31/31
f 32/33/33 31/34/34 40/36/36
f 40/36/36 31/34/34 39/35/35
f 47/37/37 32/38/38 53/40/40
f 53/40/40 32/38/38 40/39/39
f 48/41/41 47/42/42 54/44/44
f 54/44/44 47/42/42 53/43/43
f 33/45/45 48/46/46 41/48/48
f 41/48/48 48/46/46 54/47/47
f 34/49/49 33/50/50 42/52/52
f 42/52/52 33/50/50 41/51/51
f 49/53/53 34/54/54 55/56/56
f 55/56/56 34/54/54 42/55/55
f 50/57/57 49/58/58 56/60/60
f 56/60/60 49/58/58 55/59/59
f 35/61/61 50/62/62 43/64/64
f 43/64/64 50/62/62 56/63/63
f 36/65/65 35/66/66 44/68/68
f 44/68/68 35/66/66 43/67/67
f 20/69/69 36/70/70 28/72/72
f 28/72/72 36/70/70 44/71/71
f 19/73/73 20/74/74 27/76/76
f 27/76/76 20/74/74 28/75/75
f 6/77/77 19/78/78 12/80/80
f 12/80/80 19/78/78 27/79/79
f 5/81/81 6/82/82 11/84/84
f 11/84/84 6/82/82 12/83/83
f 18/85/85 5/86/86 26/88/88
f 26/88/88 5/86/86 11/87/87
f 17/89/89 18/90/90 25/92/92
f 25/92/92 18/90/90 26/91/91
f 4/93/93 17/94/94 10/96/96
f 10/96/96 17/94/94 25/95/95
f 3/97/97 4/98/98 9/100/100
f 9/100/100 4/98/98 10/99/99
f 16/101/101 3/102/102 24/104/104
f 24/104/104 3/102/102 9/103/103
f 15/105/105 16/106/106 23/108/108
f 23/108/108 16/106/106 24/107/107
f 2/109/109 15/110/110 8/112/112
f 8/112/112 15/110/110 23/111/111
f 7/140/140 8/113/113 22/139/139
f 22/139/139 8/113/113 23/114/114
f 22/139/139 23/114/114 38/136/136
f 38/136/136 23/114/114 39/133/133
f 38/136/136 39/133/133 51/135/135
f 51/135/135 39/133/133 52/134/134
f 23/114/114 24/115/115 39/133/133
f 39/133/133 24/115/115 40/132/132
f 40/132/132 24/115/115 25/118/118
f 40/132/132 25/118/118 41/129/129
f 41/129/129 25/118/118 26/119/119
f 41/129/129 26/119/119 42/128/128
f 42/128/128 26/119/119 27/122/122
f 42/128/128 27/122/122 43/125/125
f 43/125/125 27/122/122 28/123/123
f 43/125/125 28/123/123 44/124/124
f 9/116/116 10/117/117 24/115/115
f 24/115/115 10/117/117 25/118/118
f 11/120/120 12/121/121 26/119/119
f 26/119/119 12/121/121 27/122/122
f 56/126/126 55/127/127 43/125/125
f 43/125/125 55/127/127 42/128/128
f 54/130/130 53/131/131 41/129/129
f 41/129/129 53/131/131 40/132/132
f 38/136/136 37/137/137 22/139/139
f 22/139/139 37/137/137 21/138/138
f 2/142/142 1/143/143 15/141/141
f 15/141/141 1/143/143 14/144/144
f 15/141/141 14/144/144 31/150/150
f 31/150/150 14/144/144 30/147/147
f 31/150/150 30/147/147 46/149/149
f 46/149/149 30/147/147 45/148/148
f 14/144/144 13/145/145 30/147/147
f 30/147/147 13/145/145 29/146/146
f 31/150/150 32/151/151 15/141/141
f 15/141/141 32/151/151 16/168/168
f 16/168/168 32/151/151 33/154/154
f 16/168/168 33/154/154 17/165/165
f 17/165/165 33/154/154 34/155/155
f 17/165/165 34/155/155 18/164/164
f 18/164/164 34/155/155 35/158/158
f 18/164/164 35/158/158 19/161/161
f 19/161/161 35/158/158 36/159/159
f 19/161/161 36/159/159 20/160/160
f 47/152/152 48/153/153 32/151/151
f 32/151/151 48/153/153 33/154/154
f 49/156/156 50/157/157 34/155/155
f 34/155/155 50/157/157 35/158/158
f 6/162/162 5/163/163 19/161/161
f 19/161/161 5/163/163 18/164/164
f 4/166/166 3/167/167 17/165/165
f 17/165/165 3/167/167 16/168/168

# 56 vertices
# 168 texture params
# 168 normals
# 108 facets

# 1 groups
