# WaveFront *.obj file (generated by Autodesk ATF)

mtllib Крышка V2.mtl

g Твердое тело1

v -25.000000 -30.200000 30.000000
v -25.000000 -30.200000 35.000000
v -25.000000 30.200000 30.000000
v -25.000000 30.200000 35.000000
v -24.000001 -28.199999 32.000000
v -24.000001 -28.199999 34.000001
v -24.000001 30.200000 32.000000
v -24.000001 30.200000 34.000001
v -20.999999 -28.199999 34.000001
v -20.999999 -28.199999 35.000000
v -20.999999 30.200000 34.000001
v -20.999999 30.200000 35.000000
v -15.914214 -9.000000 0.000000
v -15.914214 -9.000000 30.000000
v -15.914214 -3.000000 0.000000
v -15.914214 -3.000000 30.000000
v -14.364214 -6.000000 0.000000
v -14.364214 -6.000000 30.000000
v -14.198124 -6.673849 0.000000
v -14.198124 -6.673849 30.000000
v -14.198124 -5.326151 0.000000
v -14.198124 -5.326151 30.000000
v -13.737907 -7.193326 0.000000
v -13.737907 -7.193326 30.000000
v -13.737907 -4.806674 0.000000
v -13.737907 -4.806674 30.000000
v -13.088992 -7.439428 0.000000
v -13.088992 -7.439428 30.000000
v -13.088992 -4.560572 0.000000
v -13.088992 -4.560572 30.000000
v -12.400037 -7.355773 0.000000
v -12.400037 -7.355773 30.000000
v -12.400037 -4.644226 0.000000
v -12.400037 -4.644226 30.000000
v -11.828873 -6.961528 0.000000
v -11.828873 -6.961528 30.000000
v -11.828873 -5.038472 0.000000
v -11.828873 -5.038472 30.000000
v -11.506348 -6.347008 0.000000
v -11.506348 -6.347008 30.000000
v -11.506348 -5.652992 0.000000
v -11.506348 -5.652992 30.000000
v -9.914213 -9.000000 0.000000
v -9.914213 -9.000000 30.000000
v -9.914213 -3.000000 0.000000
v -9.914213 -3.000000 30.000000
v 14.414214 -13.999994 0.000000
v 14.414214 -13.999994 30.000000
v 14.414214 -7.999994 0.000000
v 14.414214 -7.999994 30.000000
v 15.964214 -10.999994 0.000000
v 15.964214 -10.999994 30.000000
v 16.130302 -11.673843 0.000000
v 16.130302 -11.673843 30.000000
v 16.130302 -10.326146 0.000000
v 16.130302 -10.326146 30.000000
v 16.590520 -12.193321 0.000000
v 16.590520 -12.193321 30.000000
v 16.590520 -9.806668 0.000000
v 16.590520 -9.806668 30.000000
v 17.239436 -12.439423 0.000000
v 17.239436 -12.439423 30.000000
v 17.239436 -9.560567 0.000000
v 17.239436 -9.560567 30.000000
v 17.928391 -12.355767 0.000000
v 17.928391 -12.355767 30.000000
v 17.928391 -9.644221 0.000000
v 17.928391 -9.644221 30.000000
v 18.499554 -11.961522 0.000000
v 18.499554 -11.961522 30.000000
v 18.499554 -10.038466 0.000000
v 18.499554 -10.038466 30.000000
v 18.822079 -11.347002 0.000000
v 18.822079 -11.347002 30.000000
v 18.822079 -10.652987 0.000000
v 18.822079 -10.652987 30.000000
v 20.414214 -13.999994 0.000000
v 20.414214 -13.999994 30.000000
v 20.414214 -7.999994 0.000000
v 20.414214 -7.999994 30.000000
v 20.999999 -28.199999 34.000001
v 20.999999 -28.199999 35.000000
v 20.999999 30.200000 34.000001
v 20.999999 30.200000 35.000000
v 24.000001 -28.199999 32.000000
v 24.000001 -28.199999 34.000001
v 24.000001 30.200000 32.000000
v 24.000001 30.200000 34.000001
v 25.000000 -30.200000 30.000000
v 25.000000 -30.200000 35.000000
v 25.000000 30.200000 30.000000
v 25.000000 30.200000 35.000000
vt 0.600000 3.000000 0.000000
vt 0.000000 3.000000 0.000000
vt 0.000000 0.000000 0.000000
vt 0.600000 0.000000 0.000000
vt 0.600000 3.000000 0.000000
vt 0.000000 3.000000 0.000000
vt 0.000000 0.000000 0.000000
vt 0.600000 0.000000 0.000000
vt 0.145000 0.000000 0.000000
vt 0.128391 -0.067385 0.000000
vt 0.082369 -0.119333 0.000000
vt 0.017478 -0.143943 0.000000
vt -0.051418 -0.135577 0.000000
vt -0.108534 -0.096153 0.000000
vt -0.140787 -0.034701 0.000000
vt -0.140787 0.034701 0.000000
vt -0.108534 0.096153 0.000000
vt -0.051418 0.135577 0.000000
vt 0.017478 0.143943 0.000000
vt 0.082369 0.119333 0.000000
vt 0.128391 0.067385 0.000000
vt -0.300000 0.300000 0.000000
vt -0.300000 -0.300000 0.000000
vt 0.300000 -0.300000 0.000000
vt 0.300000 0.300000 0.000000
vt 0.600000 3.000000 0.000000
vt 0.000000 3.000000 0.000000
vt 0.000000 0.000000 0.000000
vt 0.600000 0.000000 0.000000
vt 0.600000 3.000000 0.000000
vt 0.000000 3.000000 0.000000
vt 0.000000 0.000000 0.000000
vt 0.600000 0.000000 0.000000
vt 1.436421 -0.600000 0.000000
vt 1.419812 -0.532615 0.000000
vt 1.373791 -0.480667 0.000000
vt 1.308899 -0.456057 0.000000
vt 1.240004 -0.464423 0.000000
vt 1.182887 -0.503847 0.000000
vt 1.150635 -0.565299 0.000000
vt 1.150635 -0.634701 0.000000
vt 1.182887 -0.696153 0.000000
vt 1.240004 -0.735577 0.000000
vt 1.308899 -0.743943 0.000000
vt 1.373791 -0.719333 0.000000
vt 1.419812 -0.667385 0.000000
vt -1.596421 -1.099999 0.000000
vt -1.613030 -1.032615 0.000000
vt -1.659052 -0.980667 0.000000
vt -1.723944 -0.956057 0.000000
vt -1.792839 -0.964422 0.000000
vt -1.849955 -1.003847 0.000000
vt -1.882208 -1.065299 0.000000
vt -1.882208 -1.134700 0.000000
vt -1.849955 -1.196152 0.000000
vt -1.792839 -1.235577 0.000000
vt -1.723944 -1.243942 0.000000
vt -1.659052 -1.219332 0.000000
vt -1.613030 -1.167384 0.000000
vt 0.991421 -0.300000 0.000000
vt 1.591421 -0.300000 0.000000
vt 1.591421 -0.900000 0.000000
vt 0.991421 -0.900000 0.000000
vt -2.500000 -3.020000 0.000000
vt 2.500000 -3.020000 0.000000
vt 2.500000 3.020000 0.000000
vt -2.500000 3.020000 0.000000
vt -1.441421 -0.799999 0.000000
vt -1.441421 -1.399999 0.000000
vt -2.041421 -1.399999 0.000000
vt -2.041421 -0.799999 0.000000
vt 0.145000 0.000000 0.000000
vt 0.128391 -0.067385 0.000000
vt 0.082369 -0.119333 0.000000
vt 0.017478 -0.143943 0.000000
vt -0.051418 -0.135577 0.000000
vt -0.108534 -0.096153 0.000000
vt -0.140787 -0.034701 0.000000
vt -0.140787 0.034701 0.000000
vt -0.108534 0.096153 0.000000
vt -0.051418 0.135577 0.000000
vt 0.017478 0.143943 0.000000
vt 0.082369 0.119333 0.000000
vt 0.128391 0.067385 0.000000
vt -0.300000 -0.300000 0.000000
vt 0.300000 -0.300000 0.000000
vt 0.300000 0.300000 0.000000
vt -0.300000 0.300000 0.000000
vt 0.000000 0.000000 0.000000
vt 5.000000 0.000000 0.000000
vt 5.000000 0.500000 0.000000
vt 4.600000 0.500000 0.000000
vt 4.600000 0.400000 0.000000
vt 4.900000 0.400000 0.000000
vt 4.900000 0.200000 0.000000
vt 0.100000 0.200000 0.000000
vt 0.100000 0.400000 0.000000
vt 0.400000 0.400000 0.000000
vt 0.400000 0.500000 0.000000
vt 0.000000 0.500000 0.000000
vt 6.040000 0.500000 0.000000
vt 0.000000 0.500000 0.000000
vt 0.000000 0.000000 0.000000
vt 6.040000 0.000000 0.000000
vt 0.000000 0.200000 0.000000
vt 0.300000 0.200000 0.000000
vt 0.300000 6.040000 0.000000
vt 0.000000 6.040000 0.000000
vt 0.000000 0.200000 0.000000
vt 0.200000 0.200000 0.000000
vt 0.200000 6.040000 0.000000
vt 0.000000 6.040000 0.000000
vt 0.000000 0.500000 0.000000
vt 0.000000 0.000000 0.000000
vt 5.000000 0.000000 0.000000
vt 5.000000 0.500000 0.000000
vt 3.000000 -0.455531 0.000000
vt 3.000000 -0.385449 0.000000
vt 3.000000 -0.315368 0.000000
vt 3.000000 -0.245286 0.000000
vt 3.000000 -0.175204 0.000000
vt 3.000000 -0.105123 0.000000
vt 3.000000 -0.035041 0.000000
vt 3.000000 0.035041 0.000000
vt 3.000000 0.105123 0.000000
vt 3.000000 0.175204 0.000000
vt 3.000000 0.245286 0.000000
vt 3.000000 0.315368 0.000000
vt 3.000000 0.385449 0.000000
vt 0.000000 0.455531 0.000000
vt 0.000000 0.385449 0.000000
vt 0.000000 0.315368 0.000000
vt 0.000000 0.245286 0.000000
vt 0.000000 0.175204 0.000000
vt 0.000000 0.105123 0.000000
vt 0.000000 0.035041 0.000000
vt 0.000000 -0.035041 0.000000
vt 0.000000 -0.105123 0.000000
vt 0.000000 -0.175204 0.000000
vt 0.000000 -0.245286 0.000000
vt 0.000000 -0.315368 0.000000
vt 0.000000 -0.385449 0.000000
vt 0.000000 -0.455531 0.000000
vt 3.000000 0.455531 0.000000
vt 0.000000 0.000000 0.000000
vt 0.600000 0.000000 0.000000
vt 0.600000 3.000000 0.000000
vt 0.000000 3.000000 0.000000
vt 0.000000 0.000000 0.000000
vt 0.600000 0.000000 0.000000
vt 0.600000 3.000000 0.000000
vt 0.000000 3.000000 0.000000
vt 0.000000 0.000000 0.000000
vt 0.600000 0.000000 0.000000
vt 0.600000 3.000000 0.000000
vt 0.000000 3.000000 0.000000
vt 0.000000 0.000000 0.000000
vt 0.600000 0.000000 0.000000
vt 0.600000 3.000000 0.000000
vt 0.000000 3.000000 0.000000
vt 3.000000 -0.455531 0.000000
vt 3.000000 -0.385449 0.000000
vt 3.000000 -0.315368 0.000000
vt 3.000000 -0.245286 0.000000
vt 3.000000 -0.175204 0.000000
vt 3.000000 -0.105123 0.000000
vt 3.000000 -0.035041 0.000000
vt 3.000000 0.035041 0.000000
vt 3.000000 0.105123 0.000000
vt 3.000000 0.175204 0.000000
vt 3.000000 0.245286 0.000000
vt 3.000000 0.315368 0.000000
vt 3.000000 0.385449 0.000000
vt 0.000000 0.455531 0.000000
vt 0.000000 0.385449 0.000000
vt 0.000000 0.315368 0.000000
vt 0.000000 0.245286 0.000000
vt 0.000000 0.175204 0.000000
vt 0.000000 0.105123 0.000000
vt 0.000000 0.035041 0.000000
vt 0.000000 -0.035041 0.000000
vt 0.000000 -0.105123 0.000000
vt 0.000000 -0.175204 0.000000
vt 0.000000 -0.245286 0.000000
vt 0.000000 -0.315368 0.000000
vt 0.000000 -0.385449 0.000000
vt 0.000000 -0.455531 0.000000
vt 3.000000 0.455531 0.000000
vt 0.400000 0.200000 0.000000
vt 0.400000 6.040000 0.000000
vt 0.000000 6.040000 0.000000
vt 0.000000 0.000000 0.000000
vt 5.000000 0.000000 0.000000
vt 5.000000 6.040000 0.000000
vt 4.600000 6.040000 0.000000
vt 4.600000 0.200000 0.000000
vt 0.000000 0.200000 0.000000
vt 0.100000 0.200000 0.000000
vt 0.100000 6.040000 0.000000
vt 0.000000 6.040000 0.000000
vt 0.000000 0.200000 0.000000
vt 0.300000 0.200000 0.000000
vt 0.300000 6.040000 0.000000
vt 0.000000 6.040000 0.000000
vt 0.000000 0.200000 0.000000
vt 0.100000 0.200000 0.000000
vt 0.100000 6.040000 0.000000
vt 0.000000 6.040000 0.000000
vt 0.000000 0.200000 0.000000
vt 0.200000 0.200000 0.000000
vt 0.200000 6.040000 0.000000
vt 0.000000 6.040000 0.000000
vt 6.040000 0.500000 0.000000
vt 0.000000 0.500000 0.000000
vt 0.000000 0.000000 0.000000
vt 6.040000 0.000000 0.000000
vt -2.400000 -2.820000 0.000000
vt 2.400000 -2.820000 0.000000
vt 2.400000 3.020000 0.000000
vt -2.400000 3.020000 0.000000
vt 0.400000 0.100000 0.000000
vt 0.400000 0.000000 0.000000
vt 4.600000 0.000000 0.000000
vt 4.600000 0.100000 0.000000
vt 4.900000 0.100000 0.000000
vt 4.900000 0.300000 0.000000
vt 0.100000 0.300000 0.000000
vt 0.100000 0.100000 0.000000
vn 0.000000 0.100000 0.000000
vn 0.000000 0.100000 0.000000
vn 0.000000 0.100000 0.000000
vn 0.000000 0.100000 0.000000
vn 0.100000 0.000000 0.000000
vn 0.100000 0.000000 0.000000
vn 0.100000 0.000000 0.000000
vn 0.100000 0.000000 0.000000
vn 0.000000 0.000000 -0.100000
vn 0.000000 0.000000 -0.100000
vn 0.000000 0.000000 -0.100000
vn 0.000000 0.000000 -0.100000
vn 0.000000 0.000000 -0.100000
vn 0.000000 0.000000 -0.100000
vn 0.000000 0.000000 -0.100000
vn 0.000000 0.000000 -0.100000
vn 0.000000 0.000000 -0.100000
vn 0.000000 0.000000 -0.100000
vn 0.000000 0.000000 -0.100000
vn 0.000000 0.000000 -0.100000
vn 0.000000 0.000000 -0.100000
vn 0.000000 0.000000 -0.100000
vn 0.000000 0.000000 -0.100000
vn 0.000000 0.000000 -0.100000
vn 0.000000 0.000000 -0.100000
vn 0.000000 -0.100000 0.000000
vn 0.000000 -0.100000 0.000000
vn 0.000000 -0.100000 0.000000
vn 0.000000 -0.100000 0.000000
vn -0.100000 0.000000 0.000000
vn -0.100000 0.000000 0.000000
vn -0.100000 0.000000 0.000000
vn -0.100000 0.000000 0.000000
vn 0.000000 0.000000 -0.100000
vn 0.000000 0.000000 -0.100000
vn 0.000000 0.000000 -0.100000
vn 0.000000 0.000000 -0.100000
vn 0.000000 0.000000 -0.100000
vn 0.000000 0.000000 -0.100000
vn 0.000000 0.000000 -0.100000
vn 0.000000 0.000000 -0.100000
vn 0.000000 0.000000 -0.100000
vn 0.000000 0.000000 -0.100000
vn 0.000000 0.000000 -0.100000
vn 0.000000 0.000000 -0.100000
vn 0.000000 0.000000 -0.100000
vn 0.000000 0.000000 -0.100000
vn 0.000000 0.000000 -0.100000
vn 0.000000 0.000000 -0.100000
vn 0.000000 0.000000 -0.100000
vn 0.000000 0.000000 -0.100000
vn 0.000000 0.000000 -0.100000
vn 0.000000 0.000000 -0.100000
vn 0.000000 0.000000 -0.100000
vn 0.000000 0.000000 -0.100000
vn 0.000000 0.000000 -0.100000
vn 0.000000 0.000000 -0.100000
vn 0.000000 0.000000 -0.100000
vn 0.000000 0.000000 -0.100000
vn 0.000000 0.000000 -0.100000
vn 0.000000 0.000000 -0.100000
vn 0.000000 0.000000 -0.100000
vn 0.000000 0.000000 -0.100000
vn 0.000000 0.000000 -0.100000
vn 0.000000 0.000000 -0.100000
vn 0.000000 0.000000 -0.100000
vn 0.000000 0.000000 -0.100000
vn 0.000000 0.000000 -0.100000
vn 0.000000 0.000000 -0.100000
vn 0.000000 0.000000 -0.100000
vn 0.000000 0.000000 -0.100000
vn 0.000000 0.000000 -0.100000
vn 0.000000 0.000000 -0.100000
vn 0.000000 0.000000 -0.100000
vn 0.000000 0.000000 -0.100000
vn 0.000000 0.000000 -0.100000
vn 0.000000 0.000000 -0.100000
vn 0.000000 0.000000 -0.100000
vn 0.000000 0.000000 -0.100000
vn 0.000000 0.000000 -0.100000
vn 0.000000 0.000000 -0.100000
vn 0.000000 0.000000 -0.100000
vn 0.000000 0.000000 -0.100000
vn 0.000000 0.000000 -0.100000
vn 0.000000 0.000000 -0.100000
vn 0.000000 0.000000 -0.100000
vn 0.000000 0.000000 -0.100000
vn 0.000000 0.000000 -0.100000
vn 0.000000 0.100000 0.000000
vn 0.000000 0.100000 0.000000
vn 0.000000 0.100000 0.000000
vn 0.000000 0.100000 0.000000
vn 0.000000 0.100000 0.000000
vn 0.000000 0.100000 0.000000
vn 0.000000 0.100000 0.000000
vn 0.000000 0.100000 0.000000
vn 0.000000 0.100000 0.000000
vn 0.000000 0.100000 0.000000
vn 0.000000 0.100000 0.000000
vn 0.000000 0.100000 0.000000
vn -0.100000 0.000000 0.000000
vn -0.100000 0.000000 0.000000
vn -0.100000 0.000000 0.000000
vn -0.100000 0.000000 0.000000
vn 0.000000 0.000000 -0.100000
vn 0.000000 0.000000 -0.100000
vn 0.000000 0.000000 -0.100000
vn 0.000000 0.000000 -0.100000
vn -0.100000 0.000000 0.000000
vn -0.100000 0.000000 0.000000
vn -0.100000 0.000000 0.000000
vn -0.100000 0.000000 0.000000
vn 0.000000 -0.100000 0.000000
vn 0.000000 -0.100000 0.000000
vn 0.000000 -0.100000 0.000000
vn 0.000000 -0.100000 0.000000
vn 0.100000 0.000000 0.000000
vn 0.088546 0.046472 0.000000
vn 0.056806 0.082298 0.000000
vn 0.012054 0.099271 0.000000
vn -0.035460 0.093502 0.000000
vn -0.074851 0.066312 0.000000
vn -0.097094 0.023932 0.000000
vn -0.097094 -0.023932 0.000000
vn -0.074851 -0.066312 0.000000
vn -0.035460 -0.093502 0.000000
vn 0.012054 -0.099271 0.000000
vn 0.056806 -0.082298 0.000000
vn 0.088546 -0.046472 0.000000
vn 0.100000 0.000000 0.000000
vn 0.088546 -0.046472 0.000000
vn 0.056806 -0.082298 0.000000
vn 0.012054 -0.099271 0.000000
vn -0.035460 -0.093502 0.000000
vn -0.074851 -0.066312 0.000000
vn -0.097094 -0.023932 0.000000
vn -0.097094 0.023932 0.000000
vn -0.074851 0.066312 0.000000
vn -0.035460 0.093502 0.000000
vn 0.012054 0.099271 0.000000
vn 0.056806 0.082298 0.000000
vn 0.088546 0.046472 0.000000
vn 0.100000 0.000000 0.000000
vn 0.100000 0.000000 0.000000
vn -0.100000 0.000000 0.000000
vn -0.100000 0.000000 0.000000
vn -0.100000 0.000000 0.000000
vn -0.100000 0.000000 0.000000
vn 0.000000 0.100000 0.000000
vn 0.000000 0.100000 0.000000
vn 0.000000 0.100000 0.000000
vn 0.000000 0.100000 0.000000
vn 0.100000 0.000000 0.000000
vn 0.100000 0.000000 0.000000
vn 0.100000 0.000000 0.000000
vn 0.100000 0.000000 0.000000
vn 0.000000 -0.100000 0.000000
vn 0.000000 -0.100000 0.000000
vn 0.000000 -0.100000 0.000000
vn 0.000000 -0.100000 0.000000
vn 0.100000 0.000000 0.000000
vn 0.088546 0.046472 0.000000
vn 0.056806 0.082298 0.000000
vn 0.012054 0.099271 0.000000
vn -0.035460 0.093502 0.000000
vn -0.074851 0.066312 0.000000
vn -0.097094 0.023932 0.000000
vn -0.097094 -0.023932 0.000000
vn -0.074851 -0.066312 0.000000
vn -0.035460 -0.093502 0.000000
vn 0.012054 -0.099271 0.000000
vn 0.056806 -0.082298 0.000000
vn 0.088546 -0.046472 0.000000
vn 0.100000 0.000000 0.000000
vn 0.088546 -0.046472 0.000000
vn 0.056806 -0.082298 0.000000
vn 0.012054 -0.099271 0.000000
vn -0.035460 -0.093502 0.000000
vn -0.074851 -0.066312 0.000000
vn -0.097094 -0.023932 0.000000
vn -0.097094 0.023932 0.000000
vn -0.074851 0.066312 0.000000
vn -0.035460 0.093502 0.000000
vn 0.012054 0.099271 0.000000
vn 0.056806 0.082298 0.000000
vn 0.088546 0.046472 0.000000
vn 0.100000 0.000000 0.000000
vn 0.100000 0.000000 0.000000
vn 0.000000 0.000000 0.100000
vn 0.000000 0.000000 0.100000
vn 0.000000 0.000000 0.100000
vn 0.000000 0.000000 0.100000
vn 0.000000 0.000000 0.100000
vn 0.000000 0.000000 0.100000
vn 0.000000 0.000000 0.100000
vn 0.000000 0.000000 0.100000
vn 0.100000 0.000000 0.000000
vn 0.100000 0.000000 0.000000
vn 0.100000 0.000000 0.000000
vn 0.100000 0.000000 0.000000
vn 0.000000 0.000000 -0.100000
vn 0.000000 0.000000 -0.100000
vn 0.000000 0.000000 -0.100000
vn 0.000000 0.000000 -0.100000
vn -0.100000 0.000000 0.000000
vn -0.100000 0.000000 0.000000
vn -0.100000 0.000000 0.000000
vn -0.100000 0.000000 0.000000
vn 0.100000 0.000000 0.000000
vn 0.100000 0.000000 0.000000
vn 0.100000 0.000000 0.000000
vn 0.100000 0.000000 0.000000
vn 0.100000 0.000000 0.000000
vn 0.100000 0.000000 0.000000
vn 0.100000 0.000000 0.000000
vn 0.100000 0.000000 0.000000
vn 0.000000 0.000000 0.100000
vn 0.000000 0.000000 0.100000
vn 0.000000 0.000000 0.100000
vn 0.000000 0.000000 0.100000
vn 0.000000 0.100000 0.000000
vn 0.000000 0.100000 0.000000
vn 0.000000 0.100000 0.000000
vn 0.000000 0.100000 0.000000
vn 0.000000 0.100000 0.000000
vn 0.000000 0.100000 0.000000
vn 0.000000 0.100000 0.000000
vn 0.000000 0.100000 0.000000
usemtl 191,191,191
f 16/1/1 46/2/2 15/4/4
f 15/4/4 46/2/2 45/3/3
f 46/5/5 44/6/6 45/8/8
f 45/8/8 44/6/6 43/7/7
f 19/10/10 13/24/24 17/9/9
f 17/9/9 13/24/24 15/25/25
f 17/9/9 15/25/25 21/21/21
f 21/21/21 15/25/25 25/20/20
f 25/20/20 15/25/25 29/19/19
f 29/19/19 15/25/25 45/22/22
f 29/19/19 45/22/22 33/18/18
f 33/18/18 45/22/22 37/17/17
f 37/17/17 45/22/22 41/16/16
f 41/16/16 45/22/22 43/23/23
f 41/16/16 43/23/23 39/15/15
f 39/15/15 43/23/23 35/14/14
f 35/14/14 43/23/23 31/13/13
f 31/13/13 43/23/23 27/12/12
f 27/12/12 43/23/23 13/24/24
f 27/12/12 13/24/24 23/11/11
f 23/11/11 13/24/24 19/10/10
f 44/26/26 14/27/27 43/29/29
f 43/29/29 14/27/27 13/28/28
f 14/30/30 16/31/31 13/33/33
f 13/33/33 16/31/31 15/32/32
f 22/35/35 42/40/40 18/34/34
f 18/34/34 42/40/40 40/41/41
f 18/34/34 40/41/41 20/46/46
f 20/46/46 40/41/41 36/42/42
f 20/46/46 36/42/42 24/45/45
f 24/45/45 36/42/42 32/43/43
f 24/45/45 32/43/43 28/44/44
f 42/40/40 22/35/35 38/39/39
f 38/39/39 22/35/35 26/36/36
f 38/39/39 26/36/36 34/38/38
f 34/38/38 26/36/36 30/37/37
f 56/48/48 76/53/53 52/47/47
f 52/47/47 76/53/53 74/54/54
f 52/47/47 74/54/54 54/59/59
f 54/59/59 74/54/54 70/55/55
f 54/59/59 70/55/55 58/58/58
f 58/58/58 70/55/55 66/56/56
f 58/58/58 66/56/56 62/57/57
f 76/53/53 56/48/48 72/52/52
f 72/52/52 56/48/48 60/49/49
f 72/52/52 60/49/49 68/51/51
f 68/51/51 60/49/49 64/50/50
f 16/61/61 3/66/66 46/60/60
f 46/60/60 3/66/66 91/67/67
f 46/60/60 91/67/67 50/68/68
f 50/68/68 91/67/67 80/71/71
f 80/71/71 91/67/67 89/64/64
f 80/71/71 89/64/64 78/70/70
f 78/70/70 89/64/64 48/69/69
f 48/69/69 89/64/64 1/65/65
f 48/69/69 1/65/65 44/63/63
f 44/63/63 1/65/65 14/62/62
f 14/62/62 1/65/65 16/61/61
f 16/61/61 1/65/65 3/66/66
f 48/69/69 44/63/63 50/68/68
f 50/68/68 44/63/63 46/60/60
f 53/73/73 47/86/86 51/72/72
f 51/72/72 47/86/86 49/87/87
f 51/72/72 49/87/87 55/84/84
f 55/84/84 49/87/87 59/83/83
f 59/83/83 49/87/87 63/82/82
f 63/82/82 49/87/87 79/88/88
f 63/82/82 79/88/88 67/81/81
f 67/81/81 79/88/88 71/80/80
f 71/80/80 79/88/88 75/79/79
f 75/79/79 79/88/88 77/85/85
f 75/79/79 77/85/85 73/78/78
f 73/78/78 77/85/85 69/77/77
f 69/77/77 77/85/85 65/76/76
f 65/76/76 77/85/85 61/75/75
f 61/75/75 77/85/85 47/86/86
f 61/75/75 47/86/86 57/74/74
f 57/74/74 47/86/86 53/73/73
f 92/100/100 91/89/89 87/96/96
f 87/96/96 91/89/89 3/90/90
f 87/96/96 3/90/90 7/95/95
f 7/95/95 3/90/90 4/91/91
f 7/95/95 4/91/91 8/94/94
f 8/94/94 4/91/91 12/92/92
f 8/94/94 12/92/92 11/93/93
f 87/96/96 88/97/97 92/100/100
f 92/100/100 88/97/97 84/99/99
f 84/99/99 88/97/97 83/98/98
f 2/101/101 4/102/102 1/104/104
f 1/104/104 4/102/102 3/103/103
f 86/105/105 81/106/106 88/108/108
f 88/108/108 81/106/106 83/107/107
f 85/109/109 86/110/110 87/112/112
f 87/112/112 86/110/110 88/111/111
f 1/114/114 89/115/115 2/113/113
f 2/113/113 89/115/115 90/116/116
f 54/118/118 53/142/142 52/117/117
f 52/117/117 53/142/142 51/143/143
f 52/144/144 51/130/130 56/129/129
f 56/129/129 51/130/130 55/131/131
f 56/129/129 55/131/131 60/128/128
f 60/128/128 55/131/131 59/132/132
f 60/128/128 59/132/132 64/127/127
f 64/127/127 59/132/132 63/133/133
f 64/127/127 63/133/133 68/126/126
f 68/126/126 63/133/133 67/134/134
f 68/126/126 67/134/134 72/125/125
f 72/125/125 67/134/134 71/135/135
f 72/125/125 71/135/135 76/124/124
f 76/124/124 71/135/135 75/136/136
f 76/124/124 75/136/136 74/123/123
f 74/123/123 75/136/136 73/137/137
f 74/123/123 73/137/137 70/122/122
f 70/122/122 73/137/137 69/138/138
f 70/122/122 69/138/138 66/121/121
f 66/121/121 69/138/138 65/139/139
f 66/121/121 65/139/139 62/120/120
f 62/120/120 65/139/139 61/140/140
f 62/120/120 61/140/140 58/119/119
f 58/119/119 61/140/140 57/141/141
f 58/119/119 57/141/141 54/118/118
f 54/118/118 57/141/141 53/142/142
f 49/145/145 47/146/146 50/148/148
f 50/148/148 47/146/146 48/147/147
f 79/149/149 49/150/150 80/152/152
f 80/152/152 49/150/150 50/151/151
f 77/153/153 79/154/154 78/156/156
f 78/156/156 79/154/154 80/155/155
f 47/157/157 77/158/158 48/160/160
f 48/160/160 77/158/158 78/159/159
f 20/162/162 19/186/186 18/161/161
f 18/161/161 19/186/186 17/187/187
f 18/188/188 17/174/174 22/173/173
f 22/173/173 17/174/174 21/175/175
f 22/173/173 21/175/175 26/172/172
f 26/172/172 21/175/175 25/176/176
f 26/172/172 25/176/176 30/171/171
f 30/171/171 25/176/176 29/177/177
f 30/171/171 29/177/177 34/170/170
f 34/170/170 29/177/177 33/178/178
f 34/170/170 33/178/178 38/169/169
f 38/169/169 33/178/178 37/179/179
f 38/169/169 37/179/179 42/168/168
f 42/168/168 37/179/179 41/180/180
f 42/168/168 41/180/180 40/167/167
f 40/167/167 41/180/180 39/181/181
f 40/167/167 39/181/181 36/166/166
f 36/166/166 39/181/181 35/182/182
f 36/166/166 35/182/182 32/165/165
f 32/165/165 35/182/182 31/183/183
f 32/165/165 31/183/183 28/164/164
f 28/164/164 31/183/183 27/184/184
f 28/164/164 27/184/184 24/163/163
f 24/163/163 27/184/184 23/185/185
f 24/163/163 23/185/185 20/162/162
f 20/162/162 23/185/185 19/186/186
f 12/190/190 4/191/191 10/189/189
f 10/189/189 4/191/191 2/192/192
f 10/189/189 2/192/192 90/193/193
f 10/189/189 90/193/193 82/196/196
f 82/196/196 90/193/193 92/194/194
f 82/196/196 92/194/194 84/195/195
f 10/197/197 9/198/198 12/200/200
f 12/200/200 9/198/198 11/199/199
f 9/201/201 6/202/202 11/204/204
f 11/204/204 6/202/202 8/203/203
f 81/205/205 82/206/206 83/208/208
f 83/208/208 82/206/206 84/207/207
f 6/209/209 5/210/210 8/212/212
f 8/212/212 5/210/210 7/211/211
f 92/213/213 90/214/214 91/216/216
f 91/216/216 90/214/214 89/215/215
f 5/217/217 85/218/218 7/220/220
f 7/220/220 85/218/218 87/219/219
f 10/222/222 82/223/223 9/221/221
f 9/221/221 82/223/223 81/224/224
f 9/221/221 81/224/224 5/227/227
f 5/227/227 81/224/224 85/226/226
f 85/226/226 81/224/224 86/225/225
f 5/227/227 6/228/228 9/221/221

# 92 vertices
# 228 texture params
# 228 normals
# 180 facets

# 1 groups
